<svg width="100" height="100" viewBox="0 0 100 100" fill="none" xmlns="http://www.w3.org/2000/svg">
<mask id="path-1-outside-1" maskUnits="userSpaceOnUse" x="0" y="13" width="100" height="76" fill="black">
<rect fill="white" y="13" width="100" height="76"/>
<path d="M20.8709 30.493C20.8709 30.493 32.8803 23.0443 50 23.0443C67.1197 23.0443 79.1291 30.493 79.1291 30.493C72.5495 24.534 61.0512 21.1011 61.0512 21.1011L62.1371 20C72.9328 20.1943 82.7064 27.7726 82.7064 27.7726C93.6936 51.0257 92.991 71.105 92.991 71.105C84.0478 82.8288 70.7609 81.9867 70.7609 81.9867L66.2254 76.1572C74.2104 74.4084 79.2569 67.2187 79.2569 67.2187C79.2569 67.2187 67.2475 75.5095 50 75.5095C32.7525 75.5095 20.7431 67.2187 20.7431 67.2187C20.7431 67.2187 25.7896 74.4084 33.7746 76.1572L29.2391 81.9867C29.2391 81.9867 15.9522 82.8288 7.00904 71.105C7.00904 71.105 6.30636 51.0257 17.2937 27.7726C17.2937 27.7726 27.0672 20.1943 37.8629 20L38.9488 21.1011C38.9488 21.1011 27.4505 24.534 20.8709 30.493Z"/>
</mask>
<path d="M20.8709 30.493C20.8709 30.493 32.8803 23.0443 50 23.0443C67.1197 23.0443 79.1291 30.493 79.1291 30.493C72.5495 24.534 61.0512 21.1011 61.0512 21.1011L62.1371 20C72.9328 20.1943 82.7064 27.7726 82.7064 27.7726C93.6936 51.0257 92.991 71.105 92.991 71.105C84.0478 82.8288 70.7609 81.9867 70.7609 81.9867L66.2254 76.1572C74.2104 74.4084 79.2569 67.2187 79.2569 67.2187C79.2569 67.2187 67.2475 75.5095 50 75.5095C32.7525 75.5095 20.7431 67.2187 20.7431 67.2187C20.7431 67.2187 25.7896 74.4084 33.7746 76.1572L29.2391 81.9867C29.2391 81.9867 15.9522 82.8288 7.00904 71.105C7.00904 71.105 6.30636 51.0257 17.2937 27.7726C17.2937 27.7726 27.0672 20.1943 37.8629 20L38.9488 21.1011C38.9488 21.1011 27.4505 24.534 20.8709 30.493Z" stroke="white" stroke-width="12.5" stroke-linejoin="round" mask="url(#path-1-outside-1)"/>
<path d="M44.0554 55C44.12 50.5906 40.6954 47 36.4954 47C32.2954 47 29 50.5906 29 55C29 59.3465 32.36 63 36.4954 63C40.6954 63 44.0554 59.3465 44.0554 55Z" fill="white"/>
<path d="M71 55C71 50.5906 67.64 47 63.44 47C59.24 47 55.9446 50.5906 55.9446 55C55.9446 59.3465 59.3046 63 63.44 63C67.64 63 71 59.3465 71 55Z" fill="white"/>
</svg>
