<svg width="100" height="100" viewBox="0 0 100 100" fill="none" xmlns="http://www.w3.org/2000/svg">
<path d="M70 10H30C18.9543 10 10 18.9543 10 30V70C10 81.0457 18.9543 90 30 90H70C81.0457 90 90 81.0457 90 70V30C90 18.9543 81.0457 10 70 10Z" stroke="white" stroke-width="6.25" stroke-linecap="round" stroke-linejoin="round"/>
<path d="M66.6667 47.375C67.1809 50.8427 66.5886 54.3842 64.974 57.4959C63.3594 60.6076 60.8048 63.1309 57.6734 64.707C54.5421 66.2831 50.9935 66.8317 47.5324 66.2747C44.0714 65.7178 40.874 64.0837 38.3952 61.6048C35.9163 59.126 34.2822 55.9286 33.7253 52.4676C33.1684 49.0065 33.7169 45.4579 35.293 42.3266C36.8691 39.1952 39.3924 36.6406 42.5041 35.026C45.6158 33.4114 49.1573 32.8191 52.625 33.3333C56.1622 33.8579 59.4369 35.5061 61.9654 38.0346C64.4939 40.5631 66.1422 43.8378 66.6667 47.375Z" stroke="white" stroke-width="8.33" stroke-linecap="round" stroke-linejoin="round"/>
<path d="M72.9167 27.0833H72.9583" stroke="white" stroke-width="6.33" stroke-linecap="round" stroke-linejoin="round"/>
</svg>
