<svg width="100" height="100" viewBox="0 0 100 100" fill="none" xmlns="http://www.w3.org/2000/svg">
<path d="M66.6667 33.3333C73.2971 33.3333 79.6559 35.9673 84.3443 40.6557C89.0328 45.3441 91.6667 51.7029 91.6667 58.3333V87.5H75V58.3333C75 56.1232 74.122 54.0036 72.5592 52.4408C70.9964 50.878 68.8768 50 66.6667 50C64.4565 50 62.3369 50.878 60.7741 52.4408C59.2113 54.0036 58.3333 56.1232 58.3333 58.3333V87.5H41.6667V58.3333C41.6667 51.7029 44.3006 45.3441 48.989 40.6557C53.6774 35.9673 60.0363 33.3333 66.6667 33.3333Z" stroke="white" stroke-width="6.25" stroke-linecap="round" stroke-linejoin="round"/>
<path d="M25 37.5H8.33334V87.5H25V37.5Z" stroke="white" stroke-width="6.25" stroke-linecap="round" stroke-linejoin="round"/>
<path d="M16.6667 25C21.269 25 25 21.269 25 16.6667C25 12.0643 21.269 8.33333 16.6667 8.33333C12.0643 8.33333 8.33334 12.0643 8.33334 16.6667C8.33334 21.269 12.0643 25 16.6667 25Z" stroke="white" stroke-width="6.25" stroke-linecap="round" stroke-linejoin="round"/>
</svg>
