<svg width="100" height="100" viewBox="0 0 100 100" fill="none" xmlns="http://www.w3.org/2000/svg">
<path d="M81.1052 42.2476C81.7416 42.2476 82.3732 42.2091 83 42.1513V29.3404C73.039 28.6282 65.0693 20.8512 64.0327 11H52.8808V64.7556C52.8808 71.3488 47.0469 76.5462 40.4368 76.5462C33.8267 76.5462 28.4749 71.1996 28.4749 64.6064C28.4749 58.0133 33.8315 52.6666 40.4368 52.6666C40.9334 52.6666 41.4011 52.7533 41.8832 52.811V41.2803C41.4059 41.2514 40.9286 41.2081 40.4368 41.2081C27.4962 41.2081 17 51.6801 17 64.6016C17 77.5184 27.4962 87.9952 40.4368 88C53.3774 88 63.8736 77.528 63.8736 64.6064V32.9546C67.5619 38.5516 73.8972 42.2476 81.1052 42.2476Z" stroke="white" stroke-width="6.25" stroke-linejoin="round"/>
</svg>
