<svg width="100" height="100" viewBox="0 0 100 100" fill="none" xmlns="http://www.w3.org/2000/svg">
<path d="M87.5 9.33334H91.65V5.18334H87.5V9.33334ZM12.5 9.33334V5.18334H8.35V9.33334H12.5ZM12.5 75H8.35V79.15H12.5V75ZM33.3333 75H37.4833V70.85H33.3333V75ZM33.3333 91.6667H29.1833C29.1833 93.3452 30.1944 94.8584 31.7452 95.5008C33.2959 96.1431 35.0809 95.7881 36.2678 94.6012L33.3333 91.6667ZM50 75V70.85C48.8994 70.85 47.8438 71.2872 47.0655 72.0655L50 75ZM70.8333 75V79.15H72.5523L73.7678 77.9345L70.8333 75ZM87.5 58.3333L90.4345 61.2678L91.65 60.0523V58.3333H87.5ZM41.6833 45.8333V49.9833H49.9833V45.8333H41.6833ZM49.9833 31.1667V27.0167H41.6833V31.1667H49.9833ZM62.5167 45.8333V49.9833H70.8167V45.8333H62.5167ZM70.8167 31.1667V27.0167H62.5167V31.1667H70.8167ZM87.5 5.18334H12.5V13.4833H87.5V5.18334ZM8.35 9.33334V75H16.65V9.33334H8.35ZM12.5 79.15H33.3333V70.85H12.5V79.15ZM29.1833 75V91.6667H37.4833V75H29.1833ZM36.2678 94.6012L52.9345 77.9345L47.0655 72.0655L30.3988 88.7322L36.2678 94.6012ZM50 79.15H70.8333V70.85H50V79.15ZM73.7678 77.9345L90.4345 61.2678L84.5655 55.3989L67.8988 72.0655L73.7678 77.9345ZM91.65 58.3333V9.33334H83.35V58.3333H91.65ZM49.9833 45.8333V31.1667H41.6833V45.8333H49.9833ZM70.8167 45.8333V31.1667H62.5167V45.8333H70.8167Z" fill="white"/>
</svg>
