<svg width="100" height="100" viewBox="0 0 100 100" fill="none" xmlns="http://www.w3.org/2000/svg">
<path d="M95.8333 12.5C91.8433 15.3145 87.4255 17.4671 82.75 18.875C80.2406 15.9896 76.9056 13.9445 73.196 13.0164C69.4864 12.0882 65.5812 12.3216 62.0087 13.6852C58.4361 15.0488 55.3685 17.4767 53.2208 20.6405C51.073 23.8043 49.9487 27.5514 50 31.375V35.5417C42.6776 35.7315 35.422 34.1076 28.8792 30.8144C22.3364 27.5212 16.7097 22.661 12.5 16.6667C12.5 16.6667 -4.16666 54.1667 33.3333 70.8333C24.7522 76.6582 14.5298 79.5789 4.16667 79.1667C41.6667 100 87.5 79.1667 87.5 31.25C87.4962 30.0894 87.3846 28.9316 87.1667 27.7917C91.4192 23.5979 94.4201 18.303 95.8333 12.5Z" stroke="white" stroke-width="8.33333" stroke-linecap="round" stroke-linejoin="round"/>
</svg>
